%TF.GenerationSoftware,KiCad,Pcbnew,(5.1.8)-1*%
%TF.CreationDate,2021-08-08T22:25:58+05:30*%
%TF.ProjectId,1st,3173742e-6b69-4636-9164-5f7063625858,rev?*%
%TF.SameCoordinates,Original*%
%TF.FileFunction,Legend,Bot*%
%TF.FilePolarity,Positive*%
%FSLAX46Y46*%
G04 Gerber Fmt 4.6, Leading zero omitted, Abs format (unit mm)*
G04 Created by KiCad (PCBNEW (5.1.8)-1) date 2021-08-08 22:25:58*
%MOMM*%
%LPD*%
G01*
G04 APERTURE LIST*
%ADD10C,0.120000*%
%ADD11C,0.150000*%
G04 APERTURE END LIST*
D10*
%TO.C,BT1*%
X51870000Y-95590000D02*
X51870000Y-91972000D01*
X50160000Y-95590000D02*
X51870000Y-95590000D01*
X56370000Y-89127300D02*
X56370000Y-73432700D01*
X50160000Y-66970000D02*
X51870000Y-66970000D01*
X51870000Y-70588000D02*
X51870000Y-66970000D01*
X44650000Y-66970000D02*
X44650000Y-70588000D01*
X46360000Y-66970000D02*
X44650000Y-66970000D01*
X40150000Y-73432700D02*
X40150000Y-77420000D01*
X42350000Y-79620000D02*
X40150000Y-77420000D01*
X42350000Y-79620000D02*
X42350000Y-82940000D01*
X42350000Y-82940000D02*
X40150000Y-85140000D01*
X40150000Y-85140000D02*
X40150000Y-89127300D01*
X44650000Y-91972000D02*
X44650000Y-95590000D01*
X46360000Y-95590000D02*
X44650000Y-95590000D01*
X40148211Y-89125370D02*
G75*
G03*
X44650000Y-91972000I8111789J7845370D01*
G01*
X56371789Y-73434630D02*
G75*
G03*
X51870000Y-70588000I-8111789J-7845370D01*
G01*
X40148211Y-73434630D02*
G75*
G02*
X44650000Y-70588000I8111789J-7845370D01*
G01*
X56371789Y-89125370D02*
G75*
G02*
X51870000Y-91972000I-8111789J7845370D01*
G01*
%TO.C,C1*%
X56484759Y-68194000D02*
X56484759Y-67564000D01*
X56169759Y-67879000D02*
X56799759Y-67879000D01*
X62911000Y-66442000D02*
X62911000Y-65638000D01*
X62871000Y-66673000D02*
X62871000Y-65407000D01*
X62831000Y-66842000D02*
X62831000Y-65238000D01*
X62791000Y-66980000D02*
X62791000Y-65100000D01*
X62751000Y-67099000D02*
X62751000Y-64981000D01*
X62711000Y-67205000D02*
X62711000Y-64875000D01*
X62671000Y-67302000D02*
X62671000Y-64778000D01*
X62631000Y-67390000D02*
X62631000Y-64690000D01*
X62591000Y-67472000D02*
X62591000Y-64608000D01*
X62551000Y-67549000D02*
X62551000Y-64531000D01*
X62511000Y-67621000D02*
X62511000Y-64459000D01*
X62471000Y-67690000D02*
X62471000Y-64390000D01*
X62431000Y-67754000D02*
X62431000Y-64326000D01*
X62391000Y-67816000D02*
X62391000Y-64264000D01*
X62351000Y-67874000D02*
X62351000Y-64206000D01*
X62311000Y-67930000D02*
X62311000Y-64150000D01*
X62271000Y-67984000D02*
X62271000Y-64096000D01*
X62231000Y-68035000D02*
X62231000Y-64045000D01*
X62191000Y-68084000D02*
X62191000Y-63996000D01*
X62151000Y-68132000D02*
X62151000Y-63948000D01*
X62111000Y-68177000D02*
X62111000Y-63903000D01*
X62071000Y-68222000D02*
X62071000Y-63858000D01*
X62031000Y-68264000D02*
X62031000Y-63816000D01*
X61991000Y-68305000D02*
X61991000Y-63775000D01*
X61951000Y-65000000D02*
X61951000Y-63735000D01*
X61951000Y-68345000D02*
X61951000Y-67080000D01*
X61911000Y-65000000D02*
X61911000Y-63697000D01*
X61911000Y-68383000D02*
X61911000Y-67080000D01*
X61871000Y-65000000D02*
X61871000Y-63660000D01*
X61871000Y-68420000D02*
X61871000Y-67080000D01*
X61831000Y-65000000D02*
X61831000Y-63624000D01*
X61831000Y-68456000D02*
X61831000Y-67080000D01*
X61791000Y-65000000D02*
X61791000Y-63590000D01*
X61791000Y-68490000D02*
X61791000Y-67080000D01*
X61751000Y-65000000D02*
X61751000Y-63556000D01*
X61751000Y-68524000D02*
X61751000Y-67080000D01*
X61711000Y-65000000D02*
X61711000Y-63524000D01*
X61711000Y-68556000D02*
X61711000Y-67080000D01*
X61671000Y-65000000D02*
X61671000Y-63492000D01*
X61671000Y-68588000D02*
X61671000Y-67080000D01*
X61631000Y-65000000D02*
X61631000Y-63462000D01*
X61631000Y-68618000D02*
X61631000Y-67080000D01*
X61591000Y-65000000D02*
X61591000Y-63433000D01*
X61591000Y-68647000D02*
X61591000Y-67080000D01*
X61551000Y-65000000D02*
X61551000Y-63404000D01*
X61551000Y-68676000D02*
X61551000Y-67080000D01*
X61511000Y-65000000D02*
X61511000Y-63376000D01*
X61511000Y-68704000D02*
X61511000Y-67080000D01*
X61471000Y-65000000D02*
X61471000Y-63350000D01*
X61471000Y-68730000D02*
X61471000Y-67080000D01*
X61431000Y-65000000D02*
X61431000Y-63324000D01*
X61431000Y-68756000D02*
X61431000Y-67080000D01*
X61391000Y-65000000D02*
X61391000Y-63298000D01*
X61391000Y-68782000D02*
X61391000Y-67080000D01*
X61351000Y-65000000D02*
X61351000Y-63274000D01*
X61351000Y-68806000D02*
X61351000Y-67080000D01*
X61311000Y-65000000D02*
X61311000Y-63250000D01*
X61311000Y-68830000D02*
X61311000Y-67080000D01*
X61271000Y-65000000D02*
X61271000Y-63228000D01*
X61271000Y-68852000D02*
X61271000Y-67080000D01*
X61231000Y-65000000D02*
X61231000Y-63206000D01*
X61231000Y-68874000D02*
X61231000Y-67080000D01*
X61191000Y-65000000D02*
X61191000Y-63184000D01*
X61191000Y-68896000D02*
X61191000Y-67080000D01*
X61151000Y-65000000D02*
X61151000Y-63164000D01*
X61151000Y-68916000D02*
X61151000Y-67080000D01*
X61111000Y-65000000D02*
X61111000Y-63144000D01*
X61111000Y-68936000D02*
X61111000Y-67080000D01*
X61071000Y-65000000D02*
X61071000Y-63124000D01*
X61071000Y-68956000D02*
X61071000Y-67080000D01*
X61031000Y-65000000D02*
X61031000Y-63106000D01*
X61031000Y-68974000D02*
X61031000Y-67080000D01*
X60991000Y-65000000D02*
X60991000Y-63088000D01*
X60991000Y-68992000D02*
X60991000Y-67080000D01*
X60951000Y-65000000D02*
X60951000Y-63070000D01*
X60951000Y-69010000D02*
X60951000Y-67080000D01*
X60911000Y-65000000D02*
X60911000Y-63054000D01*
X60911000Y-69026000D02*
X60911000Y-67080000D01*
X60871000Y-65000000D02*
X60871000Y-63038000D01*
X60871000Y-69042000D02*
X60871000Y-67080000D01*
X60831000Y-65000000D02*
X60831000Y-63022000D01*
X60831000Y-69058000D02*
X60831000Y-67080000D01*
X60791000Y-65000000D02*
X60791000Y-63007000D01*
X60791000Y-69073000D02*
X60791000Y-67080000D01*
X60751000Y-65000000D02*
X60751000Y-62993000D01*
X60751000Y-69087000D02*
X60751000Y-67080000D01*
X60711000Y-65000000D02*
X60711000Y-62979000D01*
X60711000Y-69101000D02*
X60711000Y-67080000D01*
X60671000Y-65000000D02*
X60671000Y-62966000D01*
X60671000Y-69114000D02*
X60671000Y-67080000D01*
X60631000Y-65000000D02*
X60631000Y-62954000D01*
X60631000Y-69126000D02*
X60631000Y-67080000D01*
X60591000Y-65000000D02*
X60591000Y-62942000D01*
X60591000Y-69138000D02*
X60591000Y-67080000D01*
X60551000Y-65000000D02*
X60551000Y-62930000D01*
X60551000Y-69150000D02*
X60551000Y-67080000D01*
X60511000Y-65000000D02*
X60511000Y-62919000D01*
X60511000Y-69161000D02*
X60511000Y-67080000D01*
X60471000Y-65000000D02*
X60471000Y-62909000D01*
X60471000Y-69171000D02*
X60471000Y-67080000D01*
X60431000Y-65000000D02*
X60431000Y-62899000D01*
X60431000Y-69181000D02*
X60431000Y-67080000D01*
X60391000Y-65000000D02*
X60391000Y-62890000D01*
X60391000Y-69190000D02*
X60391000Y-67080000D01*
X60350000Y-65000000D02*
X60350000Y-62881000D01*
X60350000Y-69199000D02*
X60350000Y-67080000D01*
X60310000Y-65000000D02*
X60310000Y-62873000D01*
X60310000Y-69207000D02*
X60310000Y-67080000D01*
X60270000Y-65000000D02*
X60270000Y-62865000D01*
X60270000Y-69215000D02*
X60270000Y-67080000D01*
X60230000Y-65000000D02*
X60230000Y-62858000D01*
X60230000Y-69222000D02*
X60230000Y-67080000D01*
X60190000Y-65000000D02*
X60190000Y-62851000D01*
X60190000Y-69229000D02*
X60190000Y-67080000D01*
X60150000Y-65000000D02*
X60150000Y-62845000D01*
X60150000Y-69235000D02*
X60150000Y-67080000D01*
X60110000Y-65000000D02*
X60110000Y-62839000D01*
X60110000Y-69241000D02*
X60110000Y-67080000D01*
X60070000Y-65000000D02*
X60070000Y-62834000D01*
X60070000Y-69246000D02*
X60070000Y-67080000D01*
X60030000Y-65000000D02*
X60030000Y-62829000D01*
X60030000Y-69251000D02*
X60030000Y-67080000D01*
X59990000Y-65000000D02*
X59990000Y-62825000D01*
X59990000Y-69255000D02*
X59990000Y-67080000D01*
X59950000Y-65000000D02*
X59950000Y-62822000D01*
X59950000Y-69258000D02*
X59950000Y-67080000D01*
X59910000Y-65000000D02*
X59910000Y-62818000D01*
X59910000Y-69262000D02*
X59910000Y-67080000D01*
X59870000Y-69264000D02*
X59870000Y-62816000D01*
X59830000Y-69267000D02*
X59830000Y-62813000D01*
X59790000Y-69268000D02*
X59790000Y-62812000D01*
X59750000Y-69270000D02*
X59750000Y-62810000D01*
X59710000Y-69270000D02*
X59710000Y-62810000D01*
X59670000Y-69270000D02*
X59670000Y-62810000D01*
X62940000Y-66040000D02*
G75*
G03*
X62940000Y-66040000I-3270000J0D01*
G01*
%TO.C,BT1*%
D11*
X40568571Y-80494285D02*
X40616190Y-80637142D01*
X40663809Y-80684761D01*
X40759047Y-80732380D01*
X40901904Y-80732380D01*
X40997142Y-80684761D01*
X41044761Y-80637142D01*
X41092380Y-80541904D01*
X41092380Y-80160952D01*
X40092380Y-80160952D01*
X40092380Y-80494285D01*
X40140000Y-80589523D01*
X40187619Y-80637142D01*
X40282857Y-80684761D01*
X40378095Y-80684761D01*
X40473333Y-80637142D01*
X40520952Y-80589523D01*
X40568571Y-80494285D01*
X40568571Y-80160952D01*
X40092380Y-81018095D02*
X40092380Y-81589523D01*
X41092380Y-81303809D02*
X40092380Y-81303809D01*
X41092380Y-82446666D02*
X41092380Y-81875238D01*
X41092380Y-82160952D02*
X40092380Y-82160952D01*
X40235238Y-82065714D01*
X40330476Y-81970476D01*
X40378095Y-81875238D01*
%TO.C,C1*%
X59836666Y-70797142D02*
X59884285Y-70844761D01*
X60027142Y-70892380D01*
X60122380Y-70892380D01*
X60265238Y-70844761D01*
X60360476Y-70749523D01*
X60408095Y-70654285D01*
X60455714Y-70463809D01*
X60455714Y-70320952D01*
X60408095Y-70130476D01*
X60360476Y-70035238D01*
X60265238Y-69940000D01*
X60122380Y-69892380D01*
X60027142Y-69892380D01*
X59884285Y-69940000D01*
X59836666Y-69987619D01*
X58884285Y-70892380D02*
X59455714Y-70892380D01*
X59170000Y-70892380D02*
X59170000Y-69892380D01*
X59265238Y-70035238D01*
X59360476Y-70130476D01*
X59455714Y-70178095D01*
%TD*%
M02*
